<mxfile host="app.diagrams.net" agent="Mozilla/5.0 (Macintosh; Intel Mac OS X 10_15_7) AppleWebKit/537.36 (KHTML, like Gecko) Chrome/129.0.0.0 Safari/537.36" version="24.7.17">
  <diagram id="7SujYhmEcNqTCgw_LhoW" name="Page-1">
    <mxGraphModel dx="954" dy="529" grid="1" gridSize="10" guides="1" tooltips="1" connect="1" arrows="1" fold="1" page="1" pageScale="1" pageWidth="827" pageHeight="1169" math="0" shadow="0">
      <root>
        <mxCell id="0" />
        <mxCell id="1" parent="0" />
        <mxCell id="o0pOTAsfnDn5DFASWxDN-1" value="" style="rounded=0;whiteSpace=wrap;html=1;dashed=1;" vertex="1" parent="1">
          <mxGeometry x="269" y="160" width="290" height="280" as="geometry" />
        </mxCell>
        <mxCell id="o0pOTAsfnDn5DFASWxDN-7" style="edgeStyle=orthogonalEdgeStyle;rounded=0;orthogonalLoop=1;jettySize=auto;html=1;entryX=0.5;entryY=0;entryDx=0;entryDy=0;" edge="1" parent="1" source="o0pOTAsfnDn5DFASWxDN-2" target="o0pOTAsfnDn5DFASWxDN-3">
          <mxGeometry relative="1" as="geometry" />
        </mxCell>
        <mxCell id="o0pOTAsfnDn5DFASWxDN-2" value="Server" style="rounded=0;whiteSpace=wrap;html=1;" vertex="1" parent="1">
          <mxGeometry x="354" y="50" width="120" height="60" as="geometry" />
        </mxCell>
        <mxCell id="o0pOTAsfnDn5DFASWxDN-8" style="edgeStyle=orthogonalEdgeStyle;rounded=0;orthogonalLoop=1;jettySize=auto;html=1;entryX=0.5;entryY=0;entryDx=0;entryDy=0;" edge="1" parent="1" source="o0pOTAsfnDn5DFASWxDN-3" target="o0pOTAsfnDn5DFASWxDN-4">
          <mxGeometry relative="1" as="geometry" />
        </mxCell>
        <mxCell id="o0pOTAsfnDn5DFASWxDN-3" value="Flask web routes" style="rounded=0;whiteSpace=wrap;html=1;" vertex="1" parent="1">
          <mxGeometry x="354" y="190" width="120" height="60" as="geometry" />
        </mxCell>
        <mxCell id="o0pOTAsfnDn5DFASWxDN-9" style="edgeStyle=orthogonalEdgeStyle;rounded=0;orthogonalLoop=1;jettySize=auto;html=1;entryX=0.5;entryY=0;entryDx=0;entryDy=0;" edge="1" parent="1" source="o0pOTAsfnDn5DFASWxDN-4" target="o0pOTAsfnDn5DFASWxDN-5">
          <mxGeometry relative="1" as="geometry" />
        </mxCell>
        <mxCell id="o0pOTAsfnDn5DFASWxDN-4" value="Trello interface" style="rounded=0;whiteSpace=wrap;html=1;" vertex="1" parent="1">
          <mxGeometry x="354" y="310" width="120" height="60" as="geometry" />
        </mxCell>
        <mxCell id="o0pOTAsfnDn5DFASWxDN-5" value="Trello" style="rounded=0;whiteSpace=wrap;html=1;" vertex="1" parent="1">
          <mxGeometry x="354" y="500" width="120" height="60" as="geometry" />
        </mxCell>
        <mxCell id="o0pOTAsfnDn5DFASWxDN-6" value="Web Application" style="text;html=1;align=center;verticalAlign=middle;whiteSpace=wrap;rounded=0;" vertex="1" parent="1">
          <mxGeometry x="269" y="400" width="71" height="40" as="geometry" />
        </mxCell>
      </root>
    </mxGraphModel>
  </diagram>
</mxfile>
